<svg width="334" height="669" viewBox="0 0 334 669" fill="none" xmlns="http://www.w3.org/2000/svg" xmlns:xlink="http://www.w3.org/1999/xlink">
<path d="M334 72H167L128.291 68L114.283 72L110.596 68L102.486 72H83.5H41.75L40.5519 70L36.1281 72H20.875L11.7969 68L7.37308 72H0V96L2.94922 109L0 118.5V221.25L1.84329 243L7.74173 264V278L0 280.5V292V370.5V669H11.4283L19.9073 660L33.1788 667L41.75 669L50.5055 667L52.1875 669H62.625H83.5H103.592L115.389 666L125.25 669H167H208.75H227.459L244.417 662.5L250.5 669H277.227L284.232 666L292.25 669H334V72Z" fill="#485A2D"/>
<path d="M0 2.94595L7.58464 4.83784L13.3847 2.94595H18.7385L23.6462 4.83784L24.9847 2.94595L33.4616 3.89189L38.3693 2.94595H51.754L82.9849 4.83784L103.508 2.94595H129.385L144.554 4.83784L155.262 2.94595H181.139L191.847 4.83784L196.308 2L207.016 2.94595V14.7703L204.785 21.8649L207.016 32.2703V52.1351L205.678 55.9189L207.016 62.0676V72H0V2.94595Z" fill="#485A2D"/>
<path d="M1.06708 2.8728L7.76823 4.03653L14.4694 2.58187H18.9368L24.7445 4.03653L26.5315 2.58187L34.1261 3.16373L39.487 2.58187H53.7828L85.0549 3.7456L103.371 2.58187H131.07L145.365 3.7456L156.087 2.58187H181.552L193.614 3.7456L197.634 2L207.016 2.58187" stroke="#9AB86D" stroke-width="3"/>
<g filter="url(#filter0_di_1_1512)">
<mask id="path-4-outside-1_1_1512" maskUnits="userSpaceOnUse" x="28.8786" y="32.3835" width="139" height="27" fill="black">
<rect fill="white" x="28.8786" y="32.3835" width="139" height="27"/>
</mask>
</g>
<g filter="url(#filter1_di_1_1512)">
<path d="M36.0941 100.349C35.7854 98.6021 37.1292 97 38.9032 97H63.9273L77.8887 98.3978C78.0782 98.4168 78.269 98.4167 78.4584 98.3977L92.3524 97H108.632C109.028 97 109.419 97.0823 109.781 97.2417L113.966 99.0835C115.023 99.5489 116.257 99.3304 117.091 98.5302L117.856 97.795C118.388 97.2849 119.096 97 119.832 97H146.12C147.782 97 149.092 98.416 148.964 100.074L148.149 110.557C148.131 110.789 148.142 111.023 148.18 111.252L149.137 116.936C149.18 117.194 149.188 117.457 149.16 117.717L148.432 124.445C148.406 124.689 148.411 124.936 148.448 125.179L149.17 129.949C149.192 130.091 149.202 130.234 149.202 130.377V141.899C149.202 142.038 149.192 142.176 149.172 142.313L148.449 147.249C148.411 147.505 148.409 147.764 148.441 148.02L149.202 154.053V208.253C149.202 209.828 147.925 211.105 146.35 211.105H138.037C137.397 211.105 136.776 210.89 136.273 210.495L132.128 207.234C131.258 206.55 130.071 206.431 129.082 206.928L121.382 210.801C120.985 211.001 120.546 211.105 120.1 211.105H92.3524H38.3549C36.7794 211.105 35.5023 209.828 35.5023 208.253V195.241C35.5023 194.857 35.9288 194.628 36.2488 194.839C36.5921 195.066 37.0431 194.785 36.9916 194.377L35.5023 182.579V154.053V139.789V125.526L35.1336 120.983C35.1095 120.686 35.1322 120.386 35.201 120.096L36.2827 115.525C36.3909 115.068 36.3845 114.591 36.2642 114.137L35.6371 111.772C35.548 111.436 35.5211 111.086 35.5578 110.74L36.4051 102.749C36.4332 102.484 36.4239 102.215 36.3774 101.952L36.0941 100.349Z" fill="url(#pattern0_1_1512)" shape-rendering="crispEdges"/>
</g>
<g filter="url(#filter2_dd_1_1512)">
<rect x="52.6518" y="117.846" width="73.3207" height="73.3207" fill="url(#pattern1_1_1512)" shape-rendering="crispEdges"/>
</g>
<g filter="url(#filter3_di_1_1512)">
<path d="M191.892 100.349C191.583 98.6021 192.927 97 194.701 97H219.725L233.686 98.3978C233.876 98.4168 234.066 98.4167 234.256 98.3977L248.15 97H264.429C264.825 97 265.216 97.0823 265.578 97.2417L269.763 99.0835C270.821 99.5489 272.055 99.3304 272.888 98.5302L273.654 97.795C274.185 97.2849 274.893 97 275.63 97H301.917C303.58 97 304.89 98.416 304.761 100.074L303.947 110.557C303.929 110.789 303.939 111.023 303.978 111.252L304.934 116.936C304.978 117.194 304.986 117.457 304.957 117.717L304.229 124.445C304.203 124.689 304.208 124.936 304.245 125.179L304.968 129.949C304.989 130.091 305 130.234 305 130.377V141.899C305 142.038 304.99 142.176 304.97 142.313L304.246 147.249C304.209 147.505 304.206 147.764 304.238 148.02L305 154.053V208.253C305 209.828 303.723 211.105 302.147 211.105H293.834C293.194 211.105 292.573 210.89 292.07 210.495L287.925 207.234C287.055 206.55 285.868 206.431 284.88 206.928L277.18 210.801C276.782 211.001 276.343 211.105 275.898 211.105H248.15H194.152C192.577 211.105 191.3 209.828 191.3 208.253V195.241C191.3 194.857 191.726 194.628 192.046 194.839C192.389 195.066 192.84 194.785 192.789 194.377L191.3 182.579V154.053V139.789V125.526L190.931 120.983C190.907 120.686 190.93 120.386 190.998 120.096L192.08 115.525C192.188 115.068 192.182 114.591 192.062 114.137L191.434 111.772C191.345 111.436 191.318 111.086 191.355 110.74L192.202 102.749C192.231 102.484 192.221 102.215 192.175 101.952L191.892 100.349Z" fill="url(#pattern2_1_1512)" shape-rendering="crispEdges"/>
</g>
<g filter="url(#filter4_dd_1_1512)">
<rect x="211.741" y="117.846" width="73.3207" height="73.3207" fill="url(#pattern3_1_1512)" shape-rendering="crispEdges"/>
</g>
<g filter="url(#filter5_di_1_1512)">
<path d="M34.997 242.981C34.6882 241.234 36.032 239.632 37.8061 239.632H62.8301L76.7916 241.029C76.981 241.048 77.1718 241.048 77.3613 241.029L91.2552 239.632H107.535C107.93 239.632 108.322 239.714 108.684 239.873L112.869 241.715C113.926 242.181 115.16 241.962 115.994 241.162L116.759 240.427C117.29 239.916 117.998 239.632 118.735 239.632H145.022C146.685 239.632 147.995 241.048 147.867 242.705L147.052 253.189C147.034 253.421 147.044 253.654 147.083 253.883L148.04 259.568C148.083 259.826 148.091 260.088 148.063 260.348L147.335 267.077C147.308 267.321 147.314 267.568 147.35 267.811L148.073 272.581C148.095 272.722 148.105 272.865 148.105 273.008V284.531C148.105 284.669 148.095 284.808 148.075 284.945L147.351 289.881C147.314 290.136 147.311 290.396 147.344 290.652L148.105 296.684V350.884C148.105 352.46 146.828 353.737 145.253 353.737H136.939C136.3 353.737 135.679 353.522 135.176 353.126L131.031 349.866C130.161 349.182 128.974 349.062 127.985 349.56L120.285 353.433C119.887 353.633 119.448 353.737 119.003 353.737H91.2552H37.2577C35.6823 353.737 34.4051 352.46 34.4051 350.884V337.872C34.4051 337.489 34.8316 337.259 35.1516 337.47C35.4949 337.697 35.9459 337.417 35.8944 337.008L34.4051 325.211V296.684V282.421V268.158L34.0365 263.615C34.0123 263.317 34.035 263.018 34.1038 262.727L35.1855 258.157C35.2937 257.7 35.2874 257.223 35.167 256.769L34.5399 254.403C34.4508 254.067 34.4239 253.717 34.4606 253.372L35.3079 245.381C35.3361 245.115 35.3268 244.847 35.2803 244.584L34.997 242.981Z" fill="url(#pattern4_1_1512)" shape-rendering="crispEdges"/>
</g>
<g filter="url(#filter6_dd_1_1512)">
<rect x="54.8461" y="260.478" width="73.3207" height="73.3207" fill="url(#pattern5_1_1512)" shape-rendering="crispEdges"/>
</g>
<g filter="url(#filter7_di_1_1512)">
<path d="M191.892 242.981C191.583 241.234 192.927 239.632 194.701 239.632H219.725L233.686 241.029C233.876 241.048 234.066 241.048 234.256 241.029L248.15 239.632H264.429C264.825 239.632 265.216 239.714 265.578 239.873L269.763 241.715C270.821 242.181 272.055 241.962 272.888 241.162L273.654 240.427C274.185 239.916 274.893 239.632 275.63 239.632H301.917C303.58 239.632 304.89 241.048 304.761 242.705L303.947 253.189C303.929 253.421 303.939 253.654 303.978 253.883L304.934 259.568C304.978 259.826 304.986 260.088 304.957 260.348L304.229 267.077C304.203 267.321 304.208 267.568 304.245 267.811L304.968 272.581C304.989 272.722 305 272.865 305 273.008V284.531C305 284.669 304.99 284.808 304.97 284.945L304.246 289.881C304.209 290.136 304.206 290.396 304.238 290.652L305 296.684V350.884C305 352.46 303.723 353.737 302.147 353.737H293.834C293.194 353.737 292.573 353.522 292.07 353.126L287.925 349.866C287.055 349.182 285.868 349.062 284.88 349.56L277.18 353.433C276.782 353.633 276.343 353.737 275.898 353.737H248.15H194.152C192.577 353.737 191.3 352.46 191.3 350.884V337.872C191.3 337.489 191.726 337.259 192.046 337.47C192.389 337.697 192.84 337.417 192.789 337.008L191.3 325.211V296.684V282.421V268.158L190.931 263.615C190.907 263.317 190.93 263.018 190.998 262.727L192.08 258.157C192.188 257.7 192.182 257.223 192.062 256.769L191.434 254.403C191.345 254.067 191.318 253.717 191.355 253.372L192.202 245.381C192.231 245.115 192.221 244.847 192.175 244.584L191.892 242.981Z" fill="url(#pattern6_1_1512)" shape-rendering="crispEdges"/>
</g>
<g filter="url(#filter8_dd_1_1512)">
<rect x="211.741" y="260.478" width="73.3207" height="73.3207" fill="url(#pattern7_1_1512)" shape-rendering="crispEdges"/>
</g>
<g filter="url(#filter9_di_1_1512)">
<path d="M36.0941 384.515C35.7854 382.768 37.1292 381.166 38.9032 381.166H63.9273L77.8887 382.564C78.0782 382.583 78.269 382.583 78.4584 382.564L92.3524 381.166H108.632C109.028 381.166 109.419 381.248 109.781 381.408L113.966 383.25C115.023 383.715 116.257 383.496 117.091 382.696L117.856 381.961C118.388 381.451 119.096 381.166 119.832 381.166H146.12C147.782 381.166 149.092 382.582 148.964 384.24L148.149 394.723C148.131 394.955 148.142 395.189 148.18 395.418L149.137 401.102C149.18 401.36 149.188 401.623 149.16 401.883L148.432 408.611C148.406 408.855 148.411 409.102 148.448 409.345L149.17 414.115C149.192 414.257 149.202 414.4 149.202 414.543V426.065C149.202 426.204 149.192 426.342 149.172 426.479L148.449 431.415C148.411 431.671 148.409 431.93 148.441 432.186L149.202 438.219V492.419C149.202 493.994 147.925 495.271 146.35 495.271H138.037C137.397 495.271 136.776 495.056 136.273 494.661L132.128 491.4C131.258 490.716 130.071 490.597 129.082 491.094L121.382 494.967C120.985 495.167 120.546 495.271 120.1 495.271H92.3524H38.3549C36.7794 495.271 35.5023 493.994 35.5023 492.419V479.407C35.5023 479.023 35.9288 478.794 36.2488 479.005C36.5921 479.232 37.0431 478.951 36.9916 478.543L35.5023 466.745V438.219V423.955V409.692L35.1336 405.149C35.1095 404.852 35.1322 404.552 35.201 404.262L36.2827 399.691C36.3909 399.234 36.3845 398.757 36.2642 398.303L35.6371 395.938C35.548 395.602 35.5211 395.252 35.5578 394.906L36.4051 386.915C36.4332 386.65 36.4239 386.381 36.3774 386.118L36.0941 384.515Z" fill="url(#pattern8_1_1512)" shape-rendering="crispEdges"/>
</g>
<g filter="url(#filter10_dd_1_1512)">
<rect x="54.8461" y="402.012" width="73.3207" height="73.3207" fill="url(#pattern9_1_1512)" shape-rendering="crispEdges"/>
</g>
<g filter="url(#filter11_di_1_1512)">
<path d="M191.892 384.515C191.583 382.768 192.927 381.166 194.701 381.166H219.725L233.686 382.564C233.876 382.583 234.066 382.583 234.256 382.564L248.15 381.166H264.429C264.825 381.166 265.216 381.248 265.578 381.408L269.763 383.25C270.821 383.715 272.055 383.496 272.888 382.696L273.654 381.961C274.185 381.451 274.893 381.166 275.63 381.166H301.917C303.58 381.166 304.89 382.582 304.761 384.24L303.947 394.723C303.929 394.955 303.939 395.189 303.978 395.418L304.934 401.102C304.978 401.36 304.986 401.623 304.957 401.883L304.229 408.611C304.203 408.855 304.208 409.102 304.245 409.345L304.968 414.115C304.989 414.257 305 414.4 305 414.543V426.065C305 426.204 304.99 426.342 304.97 426.479L304.246 431.415C304.209 431.671 304.206 431.93 304.238 432.186L305 438.219V492.419C305 493.994 303.723 495.271 302.147 495.271H293.834C293.194 495.271 292.573 495.056 292.07 494.661L287.925 491.4C287.055 490.716 285.868 490.597 284.88 491.094L277.18 494.967C276.782 495.167 276.343 495.271 275.898 495.271H248.15H194.152C192.577 495.271 191.3 493.994 191.3 492.419V479.407C191.3 479.023 191.726 478.794 192.046 479.005C192.389 479.232 192.84 478.951 192.789 478.543L191.3 466.745V438.219V423.955V409.692L190.931 405.149C190.907 404.852 190.93 404.552 190.998 404.262L192.08 399.691C192.188 399.234 192.182 398.757 192.062 398.303L191.434 395.938C191.345 395.602 191.318 395.252 191.355 394.906L192.202 386.915C192.231 386.65 192.221 386.381 192.175 386.118L191.892 384.515Z" fill="url(#pattern10_1_1512)" shape-rendering="crispEdges"/>
</g>
<g filter="url(#filter12_dd_1_1512)">
<rect x="212.838" y="402.012" width="73.3207" height="73.3207" fill="url(#pattern11_1_1512)" shape-rendering="crispEdges"/>
</g>
<g filter="url(#filter13_di_1_1512)">
<path d="M113.993 524.952C113.684 523.205 115.028 521.603 116.802 521.603H141.826L155.788 523.001C155.977 523.02 156.168 523.02 156.357 523.001L170.251 521.603H186.531C186.926 521.603 187.318 521.686 187.68 521.845L191.865 523.687C192.922 524.152 194.156 523.934 194.99 523.133L195.755 522.398C196.287 521.888 196.995 521.603 197.731 521.603H224.019C225.681 521.603 226.991 523.019 226.863 524.677L226.048 535.161C226.03 535.393 226.041 535.626 226.079 535.855L227.036 541.54C227.079 541.798 227.087 542.06 227.059 542.32L226.331 549.048C226.305 549.293 226.31 549.539 226.347 549.782L227.069 554.553C227.091 554.694 227.101 554.837 227.101 554.98V566.503C227.101 566.641 227.091 566.779 227.071 566.916L226.348 571.853C226.31 572.108 226.308 572.367 226.34 572.624L227.101 578.656V632.856C227.101 634.431 225.824 635.709 224.249 635.709H215.936C215.296 635.709 214.675 635.494 214.172 635.098L210.027 631.838C209.157 631.153 207.97 631.034 206.981 631.531L199.281 635.404C198.883 635.604 198.444 635.709 197.999 635.709H170.251H116.254C114.678 635.709 113.401 634.431 113.401 632.856V619.844C113.401 619.46 113.828 619.231 114.148 619.442C114.491 619.669 114.942 619.388 114.89 618.98L113.401 607.182V578.656V564.393V550.13L113.033 545.587C113.008 545.289 113.031 544.989 113.1 544.699L114.182 540.129C114.29 539.671 114.283 539.195 114.163 538.741L113.536 536.375C113.447 536.039 113.42 535.689 113.457 535.343L114.304 527.353C114.332 527.087 114.323 526.818 114.276 526.555L113.993 524.952Z" fill="url(#pattern12_1_1512)" shape-rendering="crispEdges"/>
<path d="M141.936 520.512L141.881 520.506H141.826H116.802C114.346 520.506 112.485 522.724 112.913 525.143L113.196 526.746C113.225 526.908 113.23 527.073 113.213 527.237L112.366 535.228C112.315 535.706 112.352 536.191 112.475 536.656L113.103 539.022L114.163 538.741L113.103 539.022C113.177 539.301 113.181 539.595 113.114 539.876L112.032 544.446C111.937 544.849 111.906 545.263 111.939 545.675L112.304 550.174V564.393V578.656V607.182V607.251L112.313 607.32L113.696 618.275C112.951 618.367 112.304 618.988 112.304 619.844V632.856C112.304 635.037 114.072 636.806 116.254 636.806H170.251H197.999C198.616 636.806 199.223 636.661 199.774 636.385L207.474 632.511C208.083 632.205 208.813 632.279 209.348 632.7L213.494 635.96C214.19 636.508 215.05 636.806 215.936 636.806H224.249C226.43 636.806 228.199 635.037 228.199 632.856V578.656V578.587L228.19 578.518L227.428 572.486L226.34 572.624L227.428 572.486C227.409 572.328 227.41 572.169 227.433 572.012L228.157 567.075L227.071 566.916L228.157 567.075C228.185 566.886 228.199 566.694 228.199 566.503V554.98C228.199 554.782 228.184 554.584 228.154 554.388L227.431 549.618C227.409 549.469 227.405 549.317 227.422 549.166L228.15 542.438C228.189 542.078 228.178 541.715 228.118 541.358L227.036 541.54L228.118 541.358L227.161 535.673C227.137 535.532 227.131 535.388 227.142 535.246L227.956 524.762C228.135 522.467 226.321 520.506 224.019 520.506H197.731C196.711 520.506 195.731 520.901 194.995 521.607L194.23 522.342C193.717 522.835 192.958 522.969 192.307 522.683L191.865 523.687L192.307 522.683L188.122 520.841C187.62 520.62 187.079 520.506 186.531 520.506H170.251H170.196L170.141 520.512L156.248 521.909C156.131 521.921 156.014 521.921 155.897 521.909L155.788 523L155.897 521.909L141.936 520.512Z" stroke="url(#paint0_linear_1_1512)" stroke-width="2.19433" shape-rendering="crispEdges"/>
</g>
<defs>
<filter id="filter0_di_1_1512" x="30.5266" y="34.2235" width="136" height="27.3274" filterUnits="userSpaceOnUse" color-interpolation-filters="sRGB">
<feFlood flood-opacity="0" result="BackgroundImageFix"/>
<feColorMatrix in="SourceAlpha" type="matrix" values="0 0 0 0 0 0 0 0 0 0 0 0 0 0 0 0 0 0 127 0" result="hardAlpha"/>
<feOffset dy="2.09091"/>
<feComposite in2="hardAlpha" operator="out"/>
<feColorMatrix type="matrix" values="0 0 0 0 0.164486 0 0 0 0 0.215202 0 0 0 0 0.0884135 0 0 0 1 0"/>
<feBlend mode="normal" in2="BackgroundImageFix" result="effect1_dropShadow_1_1512"/>
<feBlend mode="normal" in="SourceGraphic" in2="effect1_dropShadow_1_1512" result="shape"/>
<feColorMatrix in="SourceAlpha" type="matrix" values="0 0 0 0 0 0 0 0 0 0 0 0 0 0 0 0 0 0 127 0" result="hardAlpha"/>
<feOffset dy="3.2314"/>
<feGaussianBlur stdDeviation="4.03926"/>
<feComposite in2="hardAlpha" operator="arithmetic" k2="-1" k3="1"/>
<feColorMatrix type="matrix" values="0 0 0 0 0.797643 0 0 0 0 0.932845 0 0 0 0 0.594841 0 0 0 1 0"/>
<feBlend mode="normal" in2="shape" result="effect2_innerShadow_1_1512"/>
</filter>
<filter id="filter1_di_1_1512" x="35.1243" y="97" width="114.078" height="116.958" filterUnits="userSpaceOnUse" color-interpolation-filters="sRGB">
<feFlood flood-opacity="0" result="BackgroundImageFix"/>
<feColorMatrix in="SourceAlpha" type="matrix" values="0 0 0 0 0 0 0 0 0 0 0 0 0 0 0 0 0 0 127 0" result="hardAlpha"/>
<feOffset dy="1.42632"/>
<feComposite in2="hardAlpha" operator="out"/>
<feColorMatrix type="matrix" values="0 0 0 0 0.164706 0 0 0 0 0.215686 0 0 0 0 0.0901961 0 0 0 1 0"/>
<feBlend mode="normal" in2="BackgroundImageFix" result="effect1_dropShadow_1_1512"/>
<feBlend mode="normal" in="SourceGraphic" in2="effect1_dropShadow_1_1512" result="shape"/>
<feColorMatrix in="SourceAlpha" type="matrix" values="0 0 0 0 0 0 0 0 0 0 0 0 0 0 0 0 0 0 127 0" result="hardAlpha"/>
<feOffset dy="2.85263"/>
<feGaussianBlur stdDeviation="1.42632"/>
<feComposite in2="hardAlpha" operator="arithmetic" k2="-1" k3="1"/>
<feColorMatrix type="matrix" values="0 0 0 0 0 0 0 0 0 0 0 0 0 0 0 0 0 0 0.25 0"/>
<feBlend mode="normal" in2="shape" result="effect2_innerShadow_1_1512"/>
</filter>
<pattern id="pattern0_1_1512" patternContentUnits="objectBoundingBox" width="1" height="1">
<use xlink:href="#image0_1_1512" transform="scale(0.00166667)"/>
</pattern>
<filter id="filter2_dd_1_1512" x="47.8499" y="115.445" width="82.9245" height="82.9245" filterUnits="userSpaceOnUse" color-interpolation-filters="sRGB">
<feFlood flood-opacity="0" result="BackgroundImageFix"/>
<feColorMatrix in="SourceAlpha" type="matrix" values="0 0 0 0 0 0 0 0 0 0 0 0 0 0 0 0 0 0 127 0" result="hardAlpha"/>
<feOffset dy="2.40097"/>
<feGaussianBlur stdDeviation="2.40097"/>
<feComposite in2="hardAlpha" operator="out"/>
<feColorMatrix type="matrix" values="0 0 0 0 0 0 0 0 0 0 0 0 0 0 0 0 0 0 0.25 0"/>
<feBlend mode="normal" in2="BackgroundImageFix" result="effect1_dropShadow_1_1512"/>
<feColorMatrix in="SourceAlpha" type="matrix" values="0 0 0 0 0 0 0 0 0 0 0 0 0 0 0 0 0 0 127 0" result="hardAlpha"/>
<feOffset dy="2.40097"/>
<feGaussianBlur stdDeviation="1.20048"/>
<feComposite in2="hardAlpha" operator="out"/>
<feColorMatrix type="matrix" values="0 0 0 0 0 0 0 0 0 0 0 0 0 0 0 0 0 0 0.25 0"/>
<feBlend mode="normal" in2="effect1_dropShadow_1_1512" result="effect2_dropShadow_1_1512"/>
<feBlend mode="normal" in="SourceGraphic" in2="effect2_dropShadow_1_1512" result="shape"/>
</filter>
<pattern id="pattern1_1_1512" patternContentUnits="objectBoundingBox" width="1" height="1">
<use xlink:href="#image1_1_1512" transform="scale(0.002)"/>
</pattern>
<filter id="filter3_di_1_1512" x="190.922" y="97" width="114.078" height="116.958" filterUnits="userSpaceOnUse" color-interpolation-filters="sRGB">
<feFlood flood-opacity="0" result="BackgroundImageFix"/>
<feColorMatrix in="SourceAlpha" type="matrix" values="0 0 0 0 0 0 0 0 0 0 0 0 0 0 0 0 0 0 127 0" result="hardAlpha"/>
<feOffset dy="1.42632"/>
<feComposite in2="hardAlpha" operator="out"/>
<feColorMatrix type="matrix" values="0 0 0 0 0.164706 0 0 0 0 0.215686 0 0 0 0 0.0901961 0 0 0 1 0"/>
<feBlend mode="normal" in2="BackgroundImageFix" result="effect1_dropShadow_1_1512"/>
<feBlend mode="normal" in="SourceGraphic" in2="effect1_dropShadow_1_1512" result="shape"/>
<feColorMatrix in="SourceAlpha" type="matrix" values="0 0 0 0 0 0 0 0 0 0 0 0 0 0 0 0 0 0 127 0" result="hardAlpha"/>
<feOffset dy="2.85263"/>
<feGaussianBlur stdDeviation="1.42632"/>
<feComposite in2="hardAlpha" operator="arithmetic" k2="-1" k3="1"/>
<feColorMatrix type="matrix" values="0 0 0 0 0 0 0 0 0 0 0 0 0 0 0 0 0 0 0.25 0"/>
<feBlend mode="normal" in2="shape" result="effect2_innerShadow_1_1512"/>
</filter>
<pattern id="pattern2_1_1512" patternContentUnits="objectBoundingBox" width="1" height="1">
<use xlink:href="#image2_1_1512" transform="scale(0.00166667)"/>
</pattern>
<filter id="filter4_dd_1_1512" x="206.939" y="115.445" width="82.9245" height="82.9245" filterUnits="userSpaceOnUse" color-interpolation-filters="sRGB">
<feFlood flood-opacity="0" result="BackgroundImageFix"/>
<feColorMatrix in="SourceAlpha" type="matrix" values="0 0 0 0 0 0 0 0 0 0 0 0 0 0 0 0 0 0 127 0" result="hardAlpha"/>
<feOffset dy="2.40097"/>
<feGaussianBlur stdDeviation="2.40097"/>
<feComposite in2="hardAlpha" operator="out"/>
<feColorMatrix type="matrix" values="0 0 0 0 0 0 0 0 0 0 0 0 0 0 0 0 0 0 0.25 0"/>
<feBlend mode="normal" in2="BackgroundImageFix" result="effect1_dropShadow_1_1512"/>
<feColorMatrix in="SourceAlpha" type="matrix" values="0 0 0 0 0 0 0 0 0 0 0 0 0 0 0 0 0 0 127 0" result="hardAlpha"/>
<feOffset dy="2.40097"/>
<feGaussianBlur stdDeviation="1.20048"/>
<feComposite in2="hardAlpha" operator="out"/>
<feColorMatrix type="matrix" values="0 0 0 0 0 0 0 0 0 0 0 0 0 0 0 0 0 0 0.25 0"/>
<feBlend mode="normal" in2="effect1_dropShadow_1_1512" result="effect2_dropShadow_1_1512"/>
<feBlend mode="normal" in="SourceGraphic" in2="effect2_dropShadow_1_1512" result="shape"/>
</filter>
<pattern id="pattern3_1_1512" patternContentUnits="objectBoundingBox" width="1" height="1">
<use xlink:href="#image3_1_1512" transform="scale(0.002)"/>
</pattern>
<filter id="filter5_di_1_1512" x="34.0271" y="239.632" width="114.078" height="116.958" filterUnits="userSpaceOnUse" color-interpolation-filters="sRGB">
<feFlood flood-opacity="0" result="BackgroundImageFix"/>
<feColorMatrix in="SourceAlpha" type="matrix" values="0 0 0 0 0 0 0 0 0 0 0 0 0 0 0 0 0 0 127 0" result="hardAlpha"/>
<feOffset dy="1.42632"/>
<feComposite in2="hardAlpha" operator="out"/>
<feColorMatrix type="matrix" values="0 0 0 0 0.164706 0 0 0 0 0.215686 0 0 0 0 0.0901961 0 0 0 1 0"/>
<feBlend mode="normal" in2="BackgroundImageFix" result="effect1_dropShadow_1_1512"/>
<feBlend mode="normal" in="SourceGraphic" in2="effect1_dropShadow_1_1512" result="shape"/>
<feColorMatrix in="SourceAlpha" type="matrix" values="0 0 0 0 0 0 0 0 0 0 0 0 0 0 0 0 0 0 127 0" result="hardAlpha"/>
<feOffset dy="2.85263"/>
<feGaussianBlur stdDeviation="1.42632"/>
<feComposite in2="hardAlpha" operator="arithmetic" k2="-1" k3="1"/>
<feColorMatrix type="matrix" values="0 0 0 0 0 0 0 0 0 0 0 0 0 0 0 0 0 0 0.25 0"/>
<feBlend mode="normal" in2="shape" result="effect2_innerShadow_1_1512"/>
</filter>
<pattern id="pattern4_1_1512" patternContentUnits="objectBoundingBox" width="1" height="1">
<use xlink:href="#image4_1_1512" transform="scale(0.00166667)"/>
</pattern>
<filter id="filter6_dd_1_1512" x="50.0442" y="258.077" width="82.9245" height="82.9245" filterUnits="userSpaceOnUse" color-interpolation-filters="sRGB">
<feFlood flood-opacity="0" result="BackgroundImageFix"/>
<feColorMatrix in="SourceAlpha" type="matrix" values="0 0 0 0 0 0 0 0 0 0 0 0 0 0 0 0 0 0 127 0" result="hardAlpha"/>
<feOffset dy="2.40097"/>
<feGaussianBlur stdDeviation="2.40097"/>
<feComposite in2="hardAlpha" operator="out"/>
<feColorMatrix type="matrix" values="0 0 0 0 0 0 0 0 0 0 0 0 0 0 0 0 0 0 0.25 0"/>
<feBlend mode="normal" in2="BackgroundImageFix" result="effect1_dropShadow_1_1512"/>
<feColorMatrix in="SourceAlpha" type="matrix" values="0 0 0 0 0 0 0 0 0 0 0 0 0 0 0 0 0 0 127 0" result="hardAlpha"/>
<feOffset dy="2.40097"/>
<feGaussianBlur stdDeviation="1.20048"/>
<feComposite in2="hardAlpha" operator="out"/>
<feColorMatrix type="matrix" values="0 0 0 0 0 0 0 0 0 0 0 0 0 0 0 0 0 0 0.25 0"/>
<feBlend mode="normal" in2="effect1_dropShadow_1_1512" result="effect2_dropShadow_1_1512"/>
<feBlend mode="normal" in="SourceGraphic" in2="effect2_dropShadow_1_1512" result="shape"/>
</filter>
<pattern id="pattern5_1_1512" patternContentUnits="objectBoundingBox" width="1" height="1">
<use xlink:href="#image5_1_1512" transform="scale(0.002)"/>
</pattern>
<filter id="filter7_di_1_1512" x="190.922" y="239.632" width="114.078" height="116.958" filterUnits="userSpaceOnUse" color-interpolation-filters="sRGB">
<feFlood flood-opacity="0" result="BackgroundImageFix"/>
<feColorMatrix in="SourceAlpha" type="matrix" values="0 0 0 0 0 0 0 0 0 0 0 0 0 0 0 0 0 0 127 0" result="hardAlpha"/>
<feOffset dy="1.42632"/>
<feComposite in2="hardAlpha" operator="out"/>
<feColorMatrix type="matrix" values="0 0 0 0 0.164706 0 0 0 0 0.215686 0 0 0 0 0.0901961 0 0 0 1 0"/>
<feBlend mode="normal" in2="BackgroundImageFix" result="effect1_dropShadow_1_1512"/>
<feBlend mode="normal" in="SourceGraphic" in2="effect1_dropShadow_1_1512" result="shape"/>
<feColorMatrix in="SourceAlpha" type="matrix" values="0 0 0 0 0 0 0 0 0 0 0 0 0 0 0 0 0 0 127 0" result="hardAlpha"/>
<feOffset dy="2.85263"/>
<feGaussianBlur stdDeviation="1.42632"/>
<feComposite in2="hardAlpha" operator="arithmetic" k2="-1" k3="1"/>
<feColorMatrix type="matrix" values="0 0 0 0 0 0 0 0 0 0 0 0 0 0 0 0 0 0 0.25 0"/>
<feBlend mode="normal" in2="shape" result="effect2_innerShadow_1_1512"/>
</filter>
<pattern id="pattern6_1_1512" patternContentUnits="objectBoundingBox" width="1" height="1">
<use xlink:href="#image6_1_1512" transform="scale(0.00166667)"/>
</pattern>
<filter id="filter8_dd_1_1512" x="206.939" y="258.077" width="82.9245" height="82.9245" filterUnits="userSpaceOnUse" color-interpolation-filters="sRGB">
<feFlood flood-opacity="0" result="BackgroundImageFix"/>
<feColorMatrix in="SourceAlpha" type="matrix" values="0 0 0 0 0 0 0 0 0 0 0 0 0 0 0 0 0 0 127 0" result="hardAlpha"/>
<feOffset dy="2.40097"/>
<feGaussianBlur stdDeviation="2.40097"/>
<feComposite in2="hardAlpha" operator="out"/>
<feColorMatrix type="matrix" values="0 0 0 0 0 0 0 0 0 0 0 0 0 0 0 0 0 0 0.25 0"/>
<feBlend mode="normal" in2="BackgroundImageFix" result="effect1_dropShadow_1_1512"/>
<feColorMatrix in="SourceAlpha" type="matrix" values="0 0 0 0 0 0 0 0 0 0 0 0 0 0 0 0 0 0 127 0" result="hardAlpha"/>
<feOffset dy="2.40097"/>
<feGaussianBlur stdDeviation="1.20048"/>
<feComposite in2="hardAlpha" operator="out"/>
<feColorMatrix type="matrix" values="0 0 0 0 0 0 0 0 0 0 0 0 0 0 0 0 0 0 0.25 0"/>
<feBlend mode="normal" in2="effect1_dropShadow_1_1512" result="effect2_dropShadow_1_1512"/>
<feBlend mode="normal" in="SourceGraphic" in2="effect2_dropShadow_1_1512" result="shape"/>
</filter>
<pattern id="pattern7_1_1512" patternContentUnits="objectBoundingBox" width="1" height="1">
<use xlink:href="#image7_1_1512" transform="scale(0.002)"/>
</pattern>
<filter id="filter9_di_1_1512" x="32.9299" y="378.972" width="118.467" height="121.347" filterUnits="userSpaceOnUse" color-interpolation-filters="sRGB">
<feFlood flood-opacity="0" result="BackgroundImageFix"/>
<feColorMatrix in="SourceAlpha" type="matrix" values="0 0 0 0 0 0 0 0 0 0 0 0 0 0 0 0 0 0 127 0" result="hardAlpha"/>
<feOffset dy="1.42632"/>
<feComposite in2="hardAlpha" operator="out"/>
<feColorMatrix type="matrix" values="0 0 0 0 0.164706 0 0 0 0 0.215686 0 0 0 0 0.0901961 0 0 0 1 0"/>
<feBlend mode="normal" in2="BackgroundImageFix" result="effect1_dropShadow_1_1512"/>
<feBlend mode="normal" in="SourceGraphic" in2="effect1_dropShadow_1_1512" result="shape"/>
<feColorMatrix in="SourceAlpha" type="matrix" values="0 0 0 0 0 0 0 0 0 0 0 0 0 0 0 0 0 0 127 0" result="hardAlpha"/>
<feOffset dy="2.85263"/>
<feGaussianBlur stdDeviation="1.42632"/>
<feComposite in2="hardAlpha" operator="arithmetic" k2="-1" k3="1"/>
<feColorMatrix type="matrix" values="0 0 0 0 0 0 0 0 0 0 0 0 0 0 0 0 0 0 0.25 0"/>
<feBlend mode="normal" in2="shape" result="effect2_innerShadow_1_1512"/>
</filter>
<pattern id="pattern8_1_1512" patternContentUnits="objectBoundingBox" width="1" height="1">
<use xlink:href="#image8_1_1512" transform="scale(0.00166667)"/>
</pattern>
<filter id="filter10_dd_1_1512" x="50.0442" y="399.611" width="82.9245" height="82.9246" filterUnits="userSpaceOnUse" color-interpolation-filters="sRGB">
<feFlood flood-opacity="0" result="BackgroundImageFix"/>
<feColorMatrix in="SourceAlpha" type="matrix" values="0 0 0 0 0 0 0 0 0 0 0 0 0 0 0 0 0 0 127 0" result="hardAlpha"/>
<feOffset dy="2.40097"/>
<feGaussianBlur stdDeviation="2.40097"/>
<feComposite in2="hardAlpha" operator="out"/>
<feColorMatrix type="matrix" values="0 0 0 0 0 0 0 0 0 0 0 0 0 0 0 0 0 0 0.25 0"/>
<feBlend mode="normal" in2="BackgroundImageFix" result="effect1_dropShadow_1_1512"/>
<feColorMatrix in="SourceAlpha" type="matrix" values="0 0 0 0 0 0 0 0 0 0 0 0 0 0 0 0 0 0 127 0" result="hardAlpha"/>
<feOffset dy="2.40097"/>
<feGaussianBlur stdDeviation="1.20048"/>
<feComposite in2="hardAlpha" operator="out"/>
<feColorMatrix type="matrix" values="0 0 0 0 0 0 0 0 0 0 0 0 0 0 0 0 0 0 0.25 0"/>
<feBlend mode="normal" in2="effect1_dropShadow_1_1512" result="effect2_dropShadow_1_1512"/>
<feBlend mode="normal" in="SourceGraphic" in2="effect2_dropShadow_1_1512" result="shape"/>
</filter>
<pattern id="pattern9_1_1512" patternContentUnits="objectBoundingBox" width="1" height="1">
<use xlink:href="#image9_1_1512" transform="scale(0.002)"/>
</pattern>
<filter id="filter11_di_1_1512" x="190.922" y="381.166" width="114.078" height="116.958" filterUnits="userSpaceOnUse" color-interpolation-filters="sRGB">
<feFlood flood-opacity="0" result="BackgroundImageFix"/>
<feColorMatrix in="SourceAlpha" type="matrix" values="0 0 0 0 0 0 0 0 0 0 0 0 0 0 0 0 0 0 127 0" result="hardAlpha"/>
<feOffset dy="1.42632"/>
<feComposite in2="hardAlpha" operator="out"/>
<feColorMatrix type="matrix" values="0 0 0 0 0.164706 0 0 0 0 0.215686 0 0 0 0 0.0901961 0 0 0 1 0"/>
<feBlend mode="normal" in2="BackgroundImageFix" result="effect1_dropShadow_1_1512"/>
<feBlend mode="normal" in="SourceGraphic" in2="effect1_dropShadow_1_1512" result="shape"/>
<feColorMatrix in="SourceAlpha" type="matrix" values="0 0 0 0 0 0 0 0 0 0 0 0 0 0 0 0 0 0 127 0" result="hardAlpha"/>
<feOffset dy="2.85263"/>
<feGaussianBlur stdDeviation="1.42632"/>
<feComposite in2="hardAlpha" operator="arithmetic" k2="-1" k3="1"/>
<feColorMatrix type="matrix" values="0 0 0 0 0 0 0 0 0 0 0 0 0 0 0 0 0 0 0.25 0"/>
<feBlend mode="normal" in2="shape" result="effect2_innerShadow_1_1512"/>
</filter>
<pattern id="pattern10_1_1512" patternContentUnits="objectBoundingBox" width="1" height="1">
<use xlink:href="#image10_1_1512" transform="scale(0.00166667)"/>
</pattern>
<filter id="filter12_dd_1_1512" x="208.036" y="399.611" width="82.9245" height="82.9246" filterUnits="userSpaceOnUse" color-interpolation-filters="sRGB">
<feFlood flood-opacity="0" result="BackgroundImageFix"/>
<feColorMatrix in="SourceAlpha" type="matrix" values="0 0 0 0 0 0 0 0 0 0 0 0 0 0 0 0 0 0 127 0" result="hardAlpha"/>
<feOffset dy="2.40097"/>
<feGaussianBlur stdDeviation="2.40097"/>
<feComposite in2="hardAlpha" operator="out"/>
<feColorMatrix type="matrix" values="0 0 0 0 0 0 0 0 0 0 0 0 0 0 0 0 0 0 0.25 0"/>
<feBlend mode="normal" in2="BackgroundImageFix" result="effect1_dropShadow_1_1512"/>
<feColorMatrix in="SourceAlpha" type="matrix" values="0 0 0 0 0 0 0 0 0 0 0 0 0 0 0 0 0 0 127 0" result="hardAlpha"/>
<feOffset dy="2.40097"/>
<feGaussianBlur stdDeviation="1.20048"/>
<feComposite in2="hardAlpha" operator="out"/>
<feColorMatrix type="matrix" values="0 0 0 0 0 0 0 0 0 0 0 0 0 0 0 0 0 0 0.25 0"/>
<feBlend mode="normal" in2="effect1_dropShadow_1_1512" result="effect2_dropShadow_1_1512"/>
<feBlend mode="normal" in="SourceGraphic" in2="effect2_dropShadow_1_1512" result="shape"/>
</filter>
<pattern id="pattern11_1_1512" patternContentUnits="objectBoundingBox" width="1" height="1">
<use xlink:href="#image11_1_1512" transform="scale(0.002)"/>
</pattern>
<filter id="filter13_di_1_1512" x="110.829" y="519.409" width="118.467" height="121.347" filterUnits="userSpaceOnUse" color-interpolation-filters="sRGB">
<feFlood flood-opacity="0" result="BackgroundImageFix"/>
<feColorMatrix in="SourceAlpha" type="matrix" values="0 0 0 0 0 0 0 0 0 0 0 0 0 0 0 0 0 0 127 0" result="hardAlpha"/>
<feOffset dy="1.42632"/>
<feComposite in2="hardAlpha" operator="out"/>
<feColorMatrix type="matrix" values="0 0 0 0 0.164706 0 0 0 0 0.215686 0 0 0 0 0.0901961 0 0 0 1 0"/>
<feBlend mode="normal" in2="BackgroundImageFix" result="effect1_dropShadow_1_1512"/>
<feBlend mode="normal" in="SourceGraphic" in2="effect1_dropShadow_1_1512" result="shape"/>
<feColorMatrix in="SourceAlpha" type="matrix" values="0 0 0 0 0 0 0 0 0 0 0 0 0 0 0 0 0 0 127 0" result="hardAlpha"/>
<feOffset dy="2.85263"/>
<feGaussianBlur stdDeviation="1.42632"/>
<feComposite in2="hardAlpha" operator="arithmetic" k2="-1" k3="1"/>
<feColorMatrix type="matrix" values="0 0 0 0 0 0 0 0 0 0 0 0 0 0 0 0 0 0 0.25 0"/>
<feBlend mode="normal" in2="shape" result="effect2_innerShadow_1_1512"/>
</filter>
<pattern id="pattern12_1_1512" patternContentUnits="objectBoundingBox" width="1" height="1">
<use xlink:href="#image12_1_1512" transform="scale(0.00166667)"/>
</pattern>
<linearGradient id="paint0_linear_1_1512" x1="117.992" y1="525.169" x2="211.643" y2="549.162" gradientUnits="userSpaceOnUse">
</linearGradient>
</defs>
</svg>
